<svg xmlns="http://www.w3.org/2000/svg" viewBox="192 172 640 640" fill="#f4156b" shape-rendering="crispEdges"><rect x="232" y="292" width="40" height="40"/><rect x="272" y="292" width="40" height="40"/><rect x="312" y="292" width="40" height="40"/><rect x="352" y="292" width="40" height="40"/><rect x="632" y="292" width="40" height="40"/><rect x="672" y="292" width="40" height="40"/><rect x="712" y="292" width="40" height="40"/><rect x="752" y="292" width="40" height="40"/><rect x="232" y="332" width="40" height="40"/><rect x="272" y="332" width="40" height="40"/><rect x="312" y="332" width="40" height="40"/><rect x="352" y="332" width="40" height="40"/><rect x="392" y="332" width="40" height="40"/><rect x="432" y="332" width="40" height="40"/><rect x="552" y="332" width="40" height="40"/><rect x="592" y="332" width="40" height="40"/><rect x="632" y="332" width="40" height="40"/><rect x="672" y="332" width="40" height="40"/><rect x="712" y="332" width="40" height="40"/><rect x="752" y="332" width="40" height="40"/><rect x="232" y="372" width="40" height="40"/><rect x="272" y="372" width="40" height="40"/><rect x="392" y="372" width="40" height="40"/><rect x="432" y="372" width="40" height="40"/><rect x="472" y="372" width="40" height="40" opacity=".5"/><rect x="512" y="372" width="40" height="40" opacity=".5"/><rect x="552" y="372" width="40" height="40"/><rect x="592" y="372" width="40" height="40"/><rect x="712" y="372" width="40" height="40"/><rect x="752" y="372" width="40" height="40"/><rect x="232" y="412" width="40" height="40"/><rect x="272" y="412" width="40" height="40"/><rect x="392" y="412" width="40" height="40"/><rect x="432" y="412" width="40" height="40"/><rect x="472" y="412" width="40" height="40" opacity=".5"/><rect x="512" y="412" width="40" height="40" opacity=".5"/><rect x="552" y="412" width="40" height="40"/><rect x="592" y="412" width="40" height="40"/><rect x="712" y="412" width="40" height="40"/><rect x="752" y="412" width="40" height="40"/><rect x="232" y="452" width="40" height="40"/><rect x="272" y="452" width="40" height="40"/><rect x="392" y="452" width="40" height="40"/><rect x="432" y="452" width="40" height="40"/><rect x="472" y="452" width="40" height="40" opacity=".5"/><rect x="512" y="452" width="40" height="40" opacity=".5"/><rect x="552" y="452" width="40" height="40"/><rect x="592" y="452" width="40" height="40"/><rect x="712" y="452" width="40" height="40"/><rect x="752" y="452" width="40" height="40"/><rect x="232" y="492" width="40" height="40"/><rect x="272" y="492" width="40" height="40"/><rect x="312" y="492" width="40" height="40"/><rect x="352" y="492" width="40" height="40"/><rect x="392" y="492" width="40" height="40"/><rect x="432" y="492" width="40" height="40"/><rect x="472" y="492" width="40" height="40" opacity=".5"/><rect x="512" y="492" width="40" height="40" opacity=".5"/><rect x="552" y="492" width="40" height="40"/><rect x="592" y="492" width="40" height="40"/><rect x="632" y="492" width="40" height="40"/><rect x="672" y="492" width="40" height="40"/><rect x="712" y="492" width="40" height="40"/><rect x="752" y="492" width="40" height="40"/><rect x="232" y="532" width="40" height="40"/><rect x="272" y="532" width="40" height="40"/><rect x="312" y="532" width="40" height="40"/><rect x="352" y="532" width="40" height="40"/><rect x="472" y="532" width="40" height="40" opacity=".5"/><rect x="512" y="532" width="40" height="40" opacity=".5"/><rect x="632" y="532" width="40" height="40"/><rect x="672" y="532" width="40" height="40"/><rect x="712" y="532" width="40" height="40"/><rect x="752" y="532" width="40" height="40"/><rect x="432" y="572" width="40" height="40"/><rect x="472" y="572" width="40" height="40"/><rect x="512" y="572" width="40" height="40"/><rect x="552" y="572" width="40" height="40"/><rect x="392" y="612" width="40" height="40"/><rect x="432" y="612" width="40" height="40"/><rect x="552" y="612" width="40" height="40"/><rect x="592" y="612" width="40" height="40"/><rect x="352" y="652" width="40" height="40"/><rect x="392" y="652" width="40" height="40"/><rect x="432" y="652" width="40" height="40"/><rect x="552" y="652" width="40" height="40"/><rect x="592" y="652" width="40" height="40"/><rect x="632" y="652" width="40" height="40"/><rect x="352" y="692" width="40" height="40"/><rect x="392" y="692" width="40" height="40"/><rect x="592" y="692" width="40" height="40"/><rect x="632" y="692" width="40" height="40"/></svg>
